REM MD5 7f2f400e01d52fac4d0d619fce34a6fe
FILE "Euro Demo (Future) 96 (Europe).bin" BINARY
  TRACK 01 MODE2/2352
    INDEX 01 00:00:00
  TRACK 02 AUDIO
    INDEX 00 51:39:01
    INDEX 01 51:41:01
  TRACK 03 AUDIO
    INDEX 00 56:22:19
    INDEX 01 56:24:19
REM LEADOUT 59:25:51
